<svg width="20" height="20" viewBox="0 0 20 20" fill="none" xmlns="http://www.w3.org/2000/svg">
<path d="M10.0008 0C6.00687 0 2.75757 3.2493 2.75757 7.2432C2.75757 12.1998 9.23956 19.4763 9.51554 19.7836C9.77476 20.0723 10.2273 20.0718 10.4861 19.7836C10.7621 19.4763 17.2441 12.1998 17.2441 7.2432C17.244 3.2493 13.9947 0 10.0008 0ZM10.0008 18.3488C7.81929 15.7575 4.06194 10.645 4.06194 7.24328C4.06194 3.96852 6.72608 1.30438 10.0008 1.30438C13.2755 1.30438 15.9397 3.96852 15.9397 7.24324C15.9396 10.6451 12.1829 15.7566 10.0008 18.3488Z" fill="#4B2507"/>
<path d="M10.0008 3.599C7.99133 3.599 6.35657 5.2338 6.35657 7.24326C6.35657 9.25271 7.99137 10.8875 10.0008 10.8875C12.0102 10.8875 13.645 9.25271 13.645 7.24326C13.645 5.2338 12.0102 3.599 10.0008 3.599ZM10.0008 9.58314C8.71055 9.58314 7.66094 8.53349 7.66094 7.24326C7.66094 5.95302 8.71059 4.90337 10.0008 4.90337C11.291 4.90337 12.3406 5.95302 12.3406 7.24326C12.3406 8.53349 11.291 9.58314 10.0008 9.58314Z" fill="#4B2507"/>
</svg>
