<svg width="23" height="23" viewBox="0 0 23 23" fill="none" xmlns="http://www.w3.org/2000/svg">
<g clip-path="url(#clip0)">
<path d="M3.37 23H10.8719V14.8242H8.17664V12.1289H10.8719V8.75977C10.8719 6.902 12.3833 5.39062 14.2411 5.39062H17.6102V8.08594H14.9149C14.1718 8.08594 13.5673 8.69045 13.5673 9.43359V12.1289H17.4886L17.0394 14.8242H13.5673V23H19.6317C21.4895 23 23.0009 21.4886 23.0009 19.6309V3.36914C23.0009 1.51138 21.4895 0 19.6317 0H3.37C1.51223 0 0.000854492 1.51138 0.000854492 3.36914V19.6309C0.000854492 21.4886 1.51223 23 3.37 23ZM1.34851 3.36914C1.34851 2.25452 2.25537 1.34766 3.37 1.34766H19.6317C20.7463 1.34766 21.6532 2.25452 21.6532 3.36914V19.6309C21.6532 20.7455 20.7463 21.6523 19.6317 21.6523H14.9149V16.1719H18.1811L19.0795 10.7812H14.9149V9.43359H18.9579V4.04297H14.2411C11.6402 4.04297 9.52429 6.15886 9.52429 8.75977V10.7812H6.82898V16.1719H9.52429V21.6523H3.37C2.25537 21.6523 1.34851 20.7455 1.34851 19.6309V3.36914Z" fill="#4B2507"/>
</g>
<defs>
<clipPath id="clip0">
<rect width="23" height="23" fill="white" transform="translate(0.000854492)"/>
</clipPath>
</defs>
</svg>
