<svg width="24" height="23" viewBox="0 0 24 23" fill="none" xmlns="http://www.w3.org/2000/svg">
<g clip-path="url(#clip0)">
<path d="M3.70337 23H19.9651C21.8229 23 23.3342 21.4886 23.3342 19.6309V3.36914C23.3342 1.51138 21.8229 0 19.9651 0H3.70337C1.8456 0 0.334229 1.51138 0.334229 3.36914V19.6309C0.334229 21.4886 1.8456 23 3.70337 23ZM1.68188 3.36914C1.68188 2.25452 2.58875 1.34766 3.70337 1.34766H19.9651C21.0797 1.34766 21.9866 2.25452 21.9866 3.36914V19.6309C21.9866 20.7455 21.0797 21.6523 19.9651 21.6523H3.70337C2.58875 21.6523 1.68188 20.7455 1.68188 19.6309V3.36914Z" fill="#4B2507"/>
<path d="M11.8342 17.5645C15.1781 17.5645 17.8987 14.8439 17.8987 11.5C17.8987 8.15613 15.1781 5.43555 11.8342 5.43555C8.49036 5.43555 5.76978 8.15613 5.76978 11.5C5.76978 14.8439 8.49036 17.5645 11.8342 17.5645ZM11.8342 6.7832C14.4351 6.7832 16.551 8.89909 16.551 11.5C16.551 14.1009 14.4351 16.2168 11.8342 16.2168C9.23332 16.2168 7.11743 14.1009 7.11743 11.5C7.11743 8.89909 9.23332 6.7832 11.8342 6.7832Z" fill="#4B2507"/>
<path d="M18.5725 6.7832C19.6871 6.7832 20.594 5.87634 20.594 4.76172C20.594 3.64709 19.6871 2.74023 18.5725 2.74023C17.4579 2.74023 16.551 3.64709 16.551 4.76172C16.551 5.87634 17.4579 6.7832 18.5725 6.7832ZM18.5725 4.08789C18.944 4.08789 19.2463 4.39024 19.2463 4.76172C19.2463 5.1332 18.944 5.43555 18.5725 5.43555C18.201 5.43555 17.8987 5.1332 17.8987 4.76172C17.8987 4.39024 18.201 4.08789 18.5725 4.08789Z" fill="#4B2507"/>
</g>
<defs>
<clipPath id="clip0">
<rect width="23" height="23" fill="white" transform="translate(0.334229)"/>
</clipPath>
</defs>
</svg>
