<svg width="39" height="39" viewBox="0 0 39 39" fill="none" xmlns="http://www.w3.org/2000/svg">
<g clip-path="url(#clip0)">
<path d="M36.0334 12.5054H34.0117C33.9963 12.4882 33.9818 12.4705 33.9653 12.454L22.9436 1.43223C22.447 0.935593 21.6417 0.935593 21.1451 1.43223C20.6485 1.92887 20.6485 2.73409 21.1451 3.23073L30.4197 12.5053H8.58192L17.8566 3.23073C18.3532 2.73409 18.3532 1.92887 17.8566 1.43223C17.36 0.935593 16.5548 0.935593 16.0581 1.43223L5.03635 12.454C5.01982 12.4705 5.00535 12.4883 4.98988 12.5054H2.96828C1.33203 12.5054 0.000854492 13.8366 0.000854492 15.4728V17.1684C0.000854492 18.727 1.20856 20.0087 2.73725 20.1269L5.17475 34.7522C5.48272 36.5994 7.06534 37.9402 8.9381 37.9402H30.4361C32.3225 37.9402 33.9462 36.5319 34.213 34.6645L36.2901 20.1248C37.8066 19.9943 39.0008 18.7181 39.0008 17.1684V15.4728C39.0009 13.8366 37.6697 12.5054 36.0334 12.5054ZM36.4574 17.1684C36.4574 17.4022 36.2672 17.5923 36.0335 17.5923C35.643 17.5923 23.8733 17.5923 23.3162 17.5923C22.6138 17.5923 22.0444 18.1617 22.0444 18.8641C22.0444 19.5664 22.6138 20.1359 23.3162 20.1359H33.7194L31.6952 34.3049C31.6062 34.9274 31.065 35.3967 30.4362 35.3967H8.9381C8.31387 35.3967 7.78631 34.9498 7.68363 34.3341L5.31735 20.1359H15.6856C16.3879 20.1359 16.9574 19.5665 16.9574 18.8641C16.9574 18.1618 16.388 17.5923 15.6856 17.5923C15.1277 17.5923 3.35706 17.5923 2.96828 17.5923C2.73451 17.5923 2.54439 17.4021 2.54439 17.1684V15.4728C2.54439 15.239 2.73459 15.0489 2.96828 15.0489H36.0335C36.2673 15.0489 36.4574 15.2391 36.4574 15.4728V17.1684Z" fill="#4B2507"/>
<path d="M11.8704 22.6793C11.1681 22.6793 10.5986 23.2487 10.5986 23.9511V31.5815C10.5986 32.2838 11.168 32.8533 11.8704 32.8533C12.5728 32.8533 13.1422 32.2839 13.1422 31.5815V23.951C13.1422 23.2487 12.5728 22.6793 11.8704 22.6793Z" fill="#4B2507"/>
<path d="M19.5009 22.6793C18.7986 22.6793 18.2291 23.2487 18.2291 23.9511V31.5815C18.2291 32.2838 18.7985 32.8533 19.5009 32.8533C20.2032 32.8533 20.7726 32.2839 20.7726 31.5815V23.951C20.7726 23.2487 20.2032 22.6793 19.5009 22.6793Z" fill="#4B2507"/>
<path d="M27.1313 22.6793C26.429 22.6793 25.8595 23.2487 25.8595 23.9511V31.5815C25.8595 32.2838 26.4289 32.8533 27.1313 32.8533C27.8336 32.8533 28.403 32.2839 28.403 31.5815V23.951C28.403 23.2487 27.8336 22.6793 27.1313 22.6793Z" fill="#4B2507"/>
</g>
<defs>
<clipPath id="clip0">
<rect width="39" height="39" fill="white" transform="translate(0.000854492)"/>
</clipPath>
</defs>
</svg>
