<svg xmlns="http://www.w3.org/2000/svg" viewBox="0 0 371.92 93.92"><defs><style>.cls-1{fill:#52302d;}</style></defs><title>Ресурс 1</title><g id="Слой_2" data-name="Слой 2"><g id="Слой_1-2" data-name="Слой 1"><path class="cls-1" d="M371.36,61.11a2,2,0,0,0-1.44-.55,1.57,1.57,0,0,0-1.27.59c-.32.39-.74,1-1.27,1.67l-2.55,3.9c-.63,1-1.34,2.14-2.11,3.3s-1.55,2.34-2.35,3.51-1.57,2.29-2.34,3.38-1.5,2-2.19,2.88a25.63,25.63,0,0,1-4.42,4.48,5.61,5.61,0,0,1-2.18,1.13c-.06-.11-.13-.25-.21-.43a3.66,3.66,0,0,1-.12-1.13,16.47,16.47,0,0,1,.64-4c.43-1.61,1-3.55,1.75-5.84a23.76,23.76,0,0,0,1.52-7.31s0-.09,0-.13c9.78-20.77,3.5-20.16,3.5-20.16-6.7-.86-9.64,7-10.88,12.69-3.06.17-6.14,2.35-9.25,6.58a1.9,1.9,0,0,0-.32.47l.61-2.12.48.2c10.61-22,4.07-21.37,4.07-21.37-8.79-1.12-11.12,12.86-11.61,17a5.08,5.08,0,0,0-2.14,2.88l-.28.94c-.17.16-.33.31-.52.47a25.62,25.62,0,0,1-3.54,2.49,22.08,22.08,0,0,1-3.78,1.75,11,11,0,0,1-3.58.66,6.77,6.77,0,0,1-1.35-.16,44.85,44.85,0,0,0,2.66-8.28,37.72,37.72,0,0,0,.92-7.91,15.24,15.24,0,0,0-1.91-8.17,7,7,0,0,0-6.37-3.43,8.25,8.25,0,0,0-4.18,1.13,11.57,11.57,0,0,0-3.46,3.16A15.21,15.21,0,0,0,300,49.24a20.66,20.66,0,0,0-1,4.47h-1a9.77,9.77,0,0,0-5.69,1.87A16.1,16.1,0,0,0,287.72,61c-.26.46-.47,1-.7,1.46l-.54.8c-.71,1.09-1.5,2.25-2.35,3.47s-1.75,2.45-2.7,3.69-1.94,2.47-2.95,3.66a35.94,35.94,0,0,1-3.94,4,26,26,0,0,1-3.22,2.41,9.6,9.6,0,0,1-2.55,1.21,7.1,7.1,0,0,1-1.91.31,6.42,6.42,0,0,1-1.19-.11,2,2,0,0,1-1-.55,3,3,0,0,1-.72-1.24,6.71,6.71,0,0,1-.28-2.15,22.06,22.06,0,0,1,1.11-6.22q2.31-1.56,5.22-3.82a46.49,46.49,0,0,0,5.45-5,23.09,23.09,0,0,0,2.35-2.84,31.67,31.67,0,0,0,1.71-2.76,14.19,14.19,0,0,0,1.67-6.47q0-4.52-4.7-4.51A13.36,13.36,0,0,0,269,48.89a24.85,24.85,0,0,0-6.53,6.46,31.69,31.69,0,0,0-2.66,4.24,43.52,43.52,0,0,0-2,4.48,30.78,30.78,0,0,0-1.52,5.66c-.19.31-.36.59-.57.91-.63,1-1.33,2.15-2.11,3.31s-1.55,2.34-2.34,3.5-1.58,2.3-2.35,3.39-1.5,2-2.19,2.88a25.22,25.22,0,0,1-4.45,4.48,6,6,0,0,1-2.15,1.12,2.41,2.41,0,0,1-.2-.5,3.8,3.8,0,0,1-.12-1.13,18.39,18.39,0,0,1,.67-4.36,52.06,52.06,0,0,1,2-5.91v-.08q1.35-3.66,2.74-6.74c.93-2,1.6-3.51,2-4.39.21-.42.34-.69.4-.82s0-.1,0-.15c3.8-8.59,5.7-12,5.7-15.63a1.78,1.78,0,0,0-.4-1.28c-1.31-1.33-5.31,1.28-5.31,1.28-3.5,0-8.31,13.41-9.07,15.59l-.62.52c.17-.07.34-.12.52-.21l-.8,1.47c-.48.89-1.1,2-1.87,3.28s-1.85,2.93-3.22,4.9a25.07,25.07,0,0,1-2.43,3.15A15.61,15.61,0,0,1,228.25,80a5.25,5.25,0,0,1-1.27.73,2.49,2.49,0,0,1-.72.16c-.22,0-.33,0-.36-.08a.79.79,0,0,0-.12-.15c-.05-.11-.12-.26-.2-.47a3.41,3.41,0,0,1-.12-1.09,19.28,19.28,0,0,1,1.12-5.72c.31-1,.68-2,1.09-3,5.59-10.12-6-10.76-6-10.76-.23.42-.42.81-.6,1.2a2.29,2.29,0,0,0-.41.32l-.08.07a32.14,32.14,0,0,1-3,2.89A26.34,26.34,0,0,1,214,66.64a21.4,21.4,0,0,1-3.78,1.75,11,11,0,0,1-3.58.66,6.77,6.77,0,0,1-1.35-.16A44.89,44.89,0,0,0,208,60.61a38.35,38.35,0,0,0,.91-7.91A15.24,15.24,0,0,0,207,44.53a7,7,0,0,0-6.37-3.43,8.21,8.21,0,0,0-4.17,1.13A11.34,11.34,0,0,0,193,45.39a14.91,14.91,0,0,0-1.92,3.85,21.27,21.27,0,0,0-1,4.47h-1a9.8,9.8,0,0,0-5.69,1.87A16.21,16.21,0,0,0,178.83,61c-.19.34-.33.71-.5,1l-.62.82-2.54,3.9c-.64,1-1.34,2.14-2.11,3.3s-1.55,2.34-2.35,3.51-1.58,2.29-2.35,3.38-1.5,2-2.19,2.88a26,26,0,0,1-4.41,4.48,5.55,5.55,0,0,1-2.19,1.13l-.2-.43a3.37,3.37,0,0,1-.12-1.13,16.38,16.38,0,0,1,.63-4c.43-1.61,1-3.55,1.76-5.84a24,24,0,0,0,1.51-7.31,8.06,8.06,0,0,0-1.83-5.61,6.63,6.63,0,0,0-5.18-2q-4.77,0-9.63,6.61a1.91,1.91,0,0,0-.31.47l1.35-4.75a1.58,1.58,0,0,0-.12-1.17,1.36,1.36,0,0,0-.92-.7,9,9,0,0,0-3.34-.54,7.08,7.08,0,0,0-2.73.49,1.47,1.47,0,0,0-.5.25,5,5,0,0,0-2.34,3s0,0,0,0c-.13.19-.26.38-.38.59-.43.67-.88,1.4-1.36,2.18-.64,1-1.34,2.14-2.11,3.31s-1.55,2.33-2.35,3.5-1.57,2.3-2.34,3.38-1.5,2.06-2.19,2.89a24.7,24.7,0,0,1-4.46,4.47,6,6,0,0,1-2.15,1.13,4.16,4.16,0,0,1-.2-.51,3.76,3.76,0,0,1-.12-1.12,18.41,18.41,0,0,1,.68-4.36,51.31,51.31,0,0,1,2-5.92v-.08q1.35-3.66,2.75-6.73t2-4.4c.21-.41.34-.69.39-.82a1,1,0,0,0,.08-.42,1.39,1.39,0,0,0-1.19-1.56h-.16a7.46,7.46,0,0,0-1.23-.32,9.71,9.71,0,0,0-1.71-.15c-.59,0-1.13,0-1.64.08a3.28,3.28,0,0,0-1.39.47,6.85,6.85,0,0,0,.64-2.88,6.44,6.44,0,0,0-1.67-4.44,6.57,6.57,0,0,0-4.78-1.79,11.81,11.81,0,0,0-6.6,2.1,18.34,18.34,0,0,0-5.1,5.14,27.34,27.34,0,0,0-2.76,5.22l-.26.38q-3.34,5.45-6.65,10a30.36,30.36,0,0,1-8.07,7.66,3.88,3.88,0,0,1-1.84.78q-.08,0-.15-.15a4.1,4.1,0,0,1-.2-.47,3.41,3.41,0,0,1-.12-1.09,15.62,15.62,0,0,1,.67-3.93c.45-1.64,1-3.46,1.72-5.49s1.47-4.14,2.34-6.34,1.77-4.4,2.67-6.58A41.16,41.16,0,0,0,95.06,51a90.44,90.44,0,0,0,5.14-7.82c.42-.78,1-1.79,1.63-3s1.31-2.58,2-4a39.73,39.73,0,0,0,1.63-4.32,13.34,13.34,0,0,0,.68-3.89,5.58,5.58,0,0,0-1-3.35A3.86,3.86,0,0,0,101.87,23q-2.62,0-5.45,2.92a41.47,41.47,0,0,0-6.17,9.22c-.85,1.5-1.64,3-2.39,4.63s-1.43,3.1-2.07,4.56-1.22,2.8-1.75,4-1,2.29-1.27,3.12l-.56,1.32c0,.16-.11.31-.16.47a3.35,3.35,0,0,1-.24.54c-.21.42-.41.86-.59,1.33s-.36.93-.52,1.4c-1.59.52-3.3,1-5.13,1.4S71.89,58.7,70,59s-3.73.57-5.61.78-3.64.36-5.29.46l2.23-5.48q1.11-2.77,2.15-5.49,1.91-4.91,3.74-9.34A53.25,53.25,0,0,1,71,32.38a3.39,3.39,0,0,0,.76.08h.75a9.55,9.55,0,0,0,4.86-1.24q2.7-1.56,2.7-3.9a4.32,4.32,0,0,0-.52-1.78,4.25,4.25,0,0,0-2.34-1.87A6.78,6.78,0,0,0,75,23.12c-.72-.05-1.21-.08-1.47-.08a9.26,9.26,0,0,0-3,.47A12,12,0,0,0,68,24.68a10.21,10.21,0,0,0-1.91,1.52q-.8.81-1.35,1.44L60,26.51c-1.68-.39-3.41-.82-5.22-1.29s-3.7-.91-5.53-1.32-3.61-.8-5.33-1.17-3.37-.65-4.93-.85a32.48,32.48,0,0,0-4.26-.32h-.08A9.1,9.1,0,0,0,29.37,23a4.88,4.88,0,0,0-2.31,3.65v.7a3.1,3.1,0,0,0,1,1.87,2.88,2.88,0,0,0,2,.78,3.09,3.09,0,0,0,2.19-.85A2.79,2.79,0,0,0,33.19,27a3.82,3.82,0,0,0-.32-1.4,2.21,2.21,0,0,1,.79-.15h1a41.24,41.24,0,0,1,8.35,1.05Q48,27.56,53.16,28.88c1.54.42,3.09.81,4.66,1.17s3.09.7,4.57,1a63.37,63.37,0,0,0-3.85,8.33q-1.87,4.83-3.87,10.2-.63,1.86-1.35,3.78c-.48,1.27-1,2.52-1.43,3.77A3.19,3.19,0,0,0,49.42,56a2.86,2.86,0,0,0-2.19.9,3.36,3.36,0,0,0-.83,2.37v.16a4.86,4.86,0,0,0,2.94,4,79.48,79.48,0,0,1-4,8,39.8,39.8,0,0,1-3.86,5.56q-4,4.59-8,4.59A11.26,11.26,0,0,1,27.77,80a11.43,11.43,0,0,1-4.13-4.21,46.52,46.52,0,0,0,7.2-4.4,45.52,45.52,0,0,0,6.56-5.87,42.77,42.77,0,0,0,5.1-6.78,14.56,14.56,0,0,0,2.15-6.61,12,12,0,0,0-.36-2.3,7.35,7.35,0,0,0-1.71-3.15q-2.86-3-8.6-3a12.48,12.48,0,0,0-6.52,1.87,16.08,16.08,0,0,0-5.18,5,25.21,25.21,0,0,0-3.54,7.4,30.33,30.33,0,0,0-1.23,8.72,24.83,24.83,0,0,0,.71,6.07,12.2,12.2,0,0,1-2.86,1.2,10.93,10.93,0,0,1-3,.43,7.71,7.71,0,0,1-3.18-.66A8.56,8.56,0,0,1,4.7,69.17a8.2,8.2,0,0,1-.64-3.23v-.31a3.26,3.26,0,0,0,2-1,2.61,2.61,0,0,0,.8-1.91,2.87,2.87,0,0,0-.91-2.18,3.09,3.09,0,0,0-2.19-.85,3.79,3.79,0,0,0-1.59.47A3.72,3.72,0,0,0,.56,62.43,7.69,7.69,0,0,0,.08,64.5C0,65.14,0,65.63,0,65.94a12,12,0,0,0,4.38,9.34,13.63,13.63,0,0,0,4.1,2.41,12.85,12.85,0,0,0,4.57.86A22,22,0,0,0,20,77.3a14.83,14.83,0,0,0,5.5,6,15.15,15.15,0,0,0,8,2.06h.15a19.43,19.43,0,0,0,7.09-1.56A22.38,22.38,0,0,0,47,79.64a39.08,39.08,0,0,0,5.33-6.42,69.12,69.12,0,0,0,5-9q4.77-.15,10.19-.74a67.08,67.08,0,0,0,11.38-2.29,79.85,79.85,0,0,0-2.74,9.14,31,31,0,0,0-.92,6.82,9,9,0,0,0,1.67,5.76,5.75,5.75,0,0,0,4.93,2.25,9.77,9.77,0,0,0,5.26-1.79,31,31,0,0,0,5.05-4,47.4,47.4,0,0,0,4.34-4.86c.72-.94,1.41-1.88,2.09-2.84a10.94,10.94,0,0,0,2,5.53A6.56,6.56,0,0,0,106,80q3,0,6.36-3.27c-.1.72-.19,1.41-.24,2.06s-.07,1.26-.07,1.83a9.8,9.8,0,0,0,1.27,5.29,5.63,5.63,0,0,0,4.38,2.73,1.36,1.36,0,0,0,.59.15h.52a7.72,7.72,0,0,0,3.34-.74,14.33,14.33,0,0,0,3-1.86,24.65,24.65,0,0,0,2.62-2.5c.83-.9,1.61-1.8,2.35-2.68V81c1.41-1.65,2.65-3.29,3.8-4.91-.08.27-.14.53-.22.82-.42,1.64-1,3.62-1.67,6a1.41,1.41,0,0,0,.87,1.79,5.34,5.34,0,0,0,1.44.51,8.68,8.68,0,0,0,1.75.19c2.55,0,4.32-.91,5.33-2.72l.16-.32.08-.39.48-.85q1-2,2.66-5.06t3.54-5.92a34.07,34.07,0,0,1,2.55-3.46,17.18,17.18,0,0,1,1.87-1.91,4.85,4.85,0,0,1,1.2-.78,2.31,2.31,0,0,1,.59-.15h.16c.11,0,.16.34.16,1a13.45,13.45,0,0,1-.52,3.31c-.34,1.32-.73,2.68-1.15,4.08q-.72,2.49-1.35,5a17.63,17.63,0,0,0-.64,4.47,9.7,9.7,0,0,0,1.59,5.84A6.39,6.39,0,0,0,158.13,90a7.91,7.91,0,0,0,3.35-.74,14.68,14.68,0,0,0,3-1.87,21,21,0,0,0,2.67-2.49c.82-.91,1.6-1.8,2.34-2.68v-.08a65.38,65.38,0,0,0,5.22-7c.24-.37.46-.73.69-1.11.06,3.49,1,6.23,2.85,8.2q2.86,3.2,8.27,3.19a14.78,14.78,0,0,0,9-3.16,29.26,29.26,0,0,0,7.68-9.06,4.83,4.83,0,0,0,.88.07h.87a21.62,21.62,0,0,0,9.71-2.45,29.06,29.06,0,0,0,5.21-3.36c-.11.28-.22.55-.32.83a21.4,21.4,0,0,0-1.23,6.89,11.48,11.48,0,0,0,2.15,7.12,6.5,6.5,0,0,0,5.41,2.84q3,0,6.37-3.26c-.11.72-.19,1.41-.24,2.06s-.08,1.25-.08,1.83A9.8,9.8,0,0,0,233.18,91a5.61,5.61,0,0,0,4.38,2.72,1.29,1.29,0,0,0,.6.16h.51a7.91,7.91,0,0,0,3.35-.74,14.31,14.31,0,0,0,3-1.87,22.83,22.83,0,0,0,2.63-2.49c.82-.9,1.6-1.8,2.34-2.68v-.08a68,68,0,0,0,4.9-6.46c.46-.7.89-1.38,1.33-2.07a11.61,11.61,0,0,0,2.7,5.84,9,9,0,0,0,6.85,2.88,15.42,15.42,0,0,0,9.39-3.42,29,29,0,0,0,3.54-3.08c1.09-1.11,2.11-2.22,3.07-3.3s1.74-2.19,2.56-3.29c0,.18,0,.37,0,.56q0,5.44,2.87,8.49,2.86,3.2,8.28,3.19a14.79,14.79,0,0,0,8.95-3.16,29.26,29.26,0,0,0,7.68-9.06,4.65,4.65,0,0,0,.87.07h.88a21.65,21.65,0,0,0,9.71-2.45c.59-.29,1.16-.63,1.73-1-.23.85-.45,1.68-.7,2.57-.37,1.35-.77,2.84-1.19,4.47s-1,3.62-1.67,6a1.4,1.4,0,0,0,.87,1.79,5.34,5.34,0,0,0,1.44.51,8.6,8.6,0,0,0,1.75.19q3.81,0,5.33-2.72l.16-.32.08-.39.47-.85q1-2,2.67-5.06T338,70.06a32.61,32.61,0,0,1,2.55-3.46,16.33,16.33,0,0,1,1.87-1.91,4.84,4.84,0,0,1,1.19-.78,2.35,2.35,0,0,1,.6-.15h.16c.1,0,.16.34.16,1a13.45,13.45,0,0,1-.52,3.31c-.34,1.32-.73,2.68-1.15,4.08q-.72,2.49-1.36,5a18,18,0,0,0-.63,4.47,9.7,9.7,0,0,0,1.59,5.84A6.37,6.37,0,0,0,347.8,90a7.86,7.86,0,0,0,3.34-.74,14.75,14.75,0,0,0,3-1.87,21.56,21.56,0,0,0,2.66-2.49c.83-.91,1.61-1.8,2.35-2.68v-.08a65.22,65.22,0,0,0,5.21-7q2.19-3.42,4.26-6.77l1.27-2,1.68-2.73a1.69,1.69,0,0,0,.32-1.09A1.88,1.88,0,0,0,371.36,61.11ZM268.33,63c.3-.6.58-1.18.84-1.76q1.2-2.25,2.43-4.2c.82-1.29,1.6-2.44,2.35-3.42a13.67,13.67,0,0,1,2.1-2.38,4.81,4.81,0,0,1,1-.66,1.59,1.59,0,0,1,.08.7q0,4.13-4.85,9.11c-.75.78-1.52,1.53-2.31,2.26s-1.62,1.43-2.47,2.1C267.77,64.2,268,63.61,268.33,63ZM99.48,34.72q1.15-2.53,2-4.35a33.52,33.52,0,0,1-1.43,4,56.69,56.69,0,0,1-2.55,5.14c-.11.21-.21.4-.32.58s-.21.38-.31.59C97.81,38.46,98.68,36.48,99.48,34.72ZM21.81,70.53c-.11-.67-.19-1.34-.24-2s-.08-1.29-.08-1.91a26.25,26.25,0,0,1,1.39-8.53,20.87,20.87,0,0,1,3.7-6.81,9.57,9.57,0,0,1,7.48-3.74,2.81,2.81,0,0,1,1.59.43,3.34,3.34,0,0,1,1.47,2.22,5.72,5.72,0,0,1,.12,1,9.87,9.87,0,0,1-1.39,4.21A32.51,32.51,0,0,1,32,61a52.49,52.49,0,0,1-4.85,5.18A48.07,48.07,0,0,1,21.81,70.53Zm96-8.64c-.48.88-1.11,2-1.87,3.27s-1.85,2.93-3.23,4.9a25.13,25.13,0,0,1-2.42,3.16,15.38,15.38,0,0,1-1.88,1.71,5,5,0,0,1-1.27.74,2.63,2.63,0,0,1-.71.15c-.22,0-.34,0-.36-.08a.79.79,0,0,0-.12-.15,2.76,2.76,0,0,1-.32-1.56,19.34,19.34,0,0,1,1.12-5.72,44.36,44.36,0,0,1,2.94-7,25.78,25.78,0,0,1,3.94-5.72c1.14-1.11,2-1.67,2.42-1.67a.88.88,0,0,1,.88.47,3.62,3.62,0,0,1,.32.85,3.3,3.3,0,0,0-1.11-.15A3,3,0,0,0,114,56a2.9,2.9,0,0,0-.88,2.18,2.8,2.8,0,0,0,.88,2.1,3,3,0,0,0,2.15.86h.07a5.56,5.56,0,0,0,2.39-.7Zm75.8,16.74c-2.1,1.5-3.91,2.25-5.45,2.25a3.07,3.07,0,0,1-2.63-1.32c-.9-1.19-1.35-3-1.35-5.53a19.46,19.46,0,0,1,.52-4.43,25.75,25.75,0,0,1,1.39-4.33,26.13,26.13,0,0,1,2-3.77,10.88,10.88,0,0,1,2.19-2.65,16,16,0,0,0,3.34,9,13,13,0,0,0,5.65,4.35A20.54,20.54,0,0,1,193.59,78.63ZM204.13,59.4a43.56,43.56,0,0,1-2.22,7.16A15,15,0,0,1,199,61.85a16,16,0,0,1-1-5.8,17.77,17.77,0,0,1,1.51-7.4c.85-2,1.8-3,2.86-3,.38,0,.77.28,1.2.85q1.35,2,1.35,6.08A32.37,32.37,0,0,1,204.13,59.4Zm98.35,19.23q-3.15,2.25-5.45,2.25a3.07,3.07,0,0,1-2.63-1.32c-.9-1.19-1.35-3-1.35-5.53a19.46,19.46,0,0,1,.52-4.43A24.87,24.87,0,0,1,295,65.27a26.13,26.13,0,0,1,2-3.77,10.88,10.88,0,0,1,2.19-2.65,16,16,0,0,0,3.34,9,13,13,0,0,0,5.65,4.35A20.66,20.66,0,0,1,302.48,78.63ZM313,59.4a42.66,42.66,0,0,1-2.23,7.16,15,15,0,0,1-2.86-4.71,16,16,0,0,1-1-5.8,17.78,17.78,0,0,1,1.52-7.4c.84-2,1.8-3,2.86-3,.37,0,.77.28,1.2.85q1.35,2,1.35,6.08A32.37,32.37,0,0,1,313,59.4Z"/><path class="cls-1" d="M133.15,28.11,127.73,9.8l.12,25h1v.5H126.1v-.5h1.05V6.63H126.1V6.12h4.43l4.25,14.94,4.84-14.94h3.63v.51h-1l0,28.2h1v.5h-5.63v-.5h1.21V10.59Z"/><path class="cls-1" d="M155.94,12.8c-.37,1-.68,2-.94,2.82s-.57,1.81-.92,2.9-.7,2.18-1.07,3.29q-1.29,4-2.92,9v4h.84v.5h-5.3v-.5h1V6.63h-1V6.12h5.3v.51h-.88l0,22.52c.36-1,.68-2,1-2.81l.94-2.88c.35-1.07.7-2.18,1.07-3.32q1.29-4,2.88-9V6.63h-1.05V6.12h5.3v.51h-.88l.05,28.2h.83v.5h-5.3v-.5h1.05Z"/><path class="cls-1" d="M172.46,10.63a7.78,7.78,0,0,1,.89-2.75,4.13,4.13,0,0,1,1.3-1.42,2.07,2.07,0,0,1,2.44.1,1.53,1.53,0,0,1,.52.92,1.3,1.3,0,0,1-.35,1.1,1.59,1.59,0,0,1-1,.61,1.55,1.55,0,0,1-.84-.19,4.6,4.6,0,0,1-.73-.48.85.85,0,0,0-.63-.23c-.19,0-.37.23-.54.59a8.93,8.93,0,0,0-.5,1.88,21.11,21.11,0,0,0-.5,3.75,17.06,17.06,0,0,1-.25,2.71,2.7,2.7,0,0,1-.85,1.63,3.57,3.57,0,0,1-2.24.54,10,10,0,0,1,3.2.44,4.64,4.64,0,0,1,2,1.34,5.09,5.09,0,0,1,1.08,2.25,14,14,0,0,1,.32,3.15c0,1.33,0,2.52,0,3.55a18.16,18.16,0,0,0,.15,2.56,3.61,3.61,0,0,0,.52,1.57,1.36,1.36,0,0,0,1.21.54v.54a6.61,6.61,0,0,1-3.09-.58A3.57,3.57,0,0,1,173.08,33a7.54,7.54,0,0,1-.56-2.76c0-1.08-.06-2.32-.06-3.71a12.39,12.39,0,0,0-.46-3.82,4.47,4.47,0,0,0-1.13-1.9,2.41,2.41,0,0,0-1.42-.64c-.5-.05-.93-.07-1.29-.07l0,14.69H169v.5h-5.3v-.5h1V6.63h-1V6.12H169v.51h-.88V19.06a5.45,5.45,0,0,0,2.5-.4,2,2,0,0,0,.94-1.37,14.45,14.45,0,0,0,.29-2.59A26.76,26.76,0,0,1,172.46,10.63Z"/><path class="cls-1" d="M182.3,29.07q0-5,0-8.22c0-2.14,0-3.84,0-5.09V12.38c0-.66,0-1.37.09-2.1a4.93,4.93,0,0,1,.58-2,3.84,3.84,0,0,1,1.61-1.52,6.56,6.56,0,0,1,3.11-.61,7.74,7.74,0,0,1,3.15.52A3.66,3.66,0,0,1,192.46,8a4.39,4.39,0,0,1,.61,2,23.27,23.27,0,0,1,0,2.38c0,2.12,0,4,0,5.57s0,3,0,4.18,0,2.17,0,3,0,1.46,0,2a19.91,19.91,0,0,0,.05,2q0,1.59-.09,2.76a3.94,3.94,0,0,1-.6,1.94,3.19,3.19,0,0,1-1.65,1.16,9.92,9.92,0,0,1-3.21.4,9.37,9.37,0,0,1-3.11-.4A3,3,0,0,1,183,33.74a4.07,4.07,0,0,1-.58-1.93C182.33,31,182.3,30.13,182.3,29.07Zm3.22,0c0,.92,0,1.73,0,2.44a8.6,8.6,0,0,0,.23,1.8,2.14,2.14,0,0,0,.62,1.12,1.84,1.84,0,0,0,1.28.4,1.77,1.77,0,0,0,1.23-.4,2.3,2.3,0,0,0,.64-1.12,7,7,0,0,0,.23-1.8c0-.71,0-1.52,0-2.44V26.23c0-1.16,0-2.84,0-5s0-5.13-.06-8.83q0-1.08,0-2.1a9.72,9.72,0,0,0-.23-1.84,2.91,2.91,0,0,0-.62-1.31,1.49,1.49,0,0,0-1.19-.5,1.52,1.52,0,0,0-1.28.56,3.43,3.43,0,0,0-.62,1.42,10.51,10.51,0,0,0-.23,1.87c0,.69,0,1.32,0,1.9v4c0,1.36,0,3.09,0,5.19S185.49,26.18,185.52,29.07Z"/><path class="cls-1" d="M203.12,6.12l5.22,28.79h.83v.42h-6v-.42h1L200.2,8.17l-3.54,26.74h.71v.42h-1.78c-.18,0-.27,0-.27,0v-.38H196s0-.45.17-1.27.25-1.89.43-3.21.39-2.83.61-4.53.44-3.42.67-5.17q.78-6.23,1.79-14.1h-1V6.12Z"/><path class="cls-1" d="M218.9,28.15h-3.34a5,5,0,0,0-.82.07,2.66,2.66,0,0,0-.83.25,2,2,0,0,0-.67.5,1.4,1.4,0,0,0-.31.81l-.67,5.13H213v.42H211.2c-.18,0-.27,0-.27,0v-.38h.66s.06-.45.17-1.27.26-1.89.44-3.21.38-2.83.6-4.53.45-3.42.67-5.17l1.8-14.1h-1.05V6.12h4.51l5.21,28.79h.84v.42h-6v-.42h1.05Zm-.09-.41-3-19.57L213,29c0-.42.29-.74.86-1a5.11,5.11,0,0,1,1.85-.33Z"/><path class="cls-1" d="M227.45,6.63V6.12h5.3v.51h-.88l0,28.2h.84v.5h-5.3v-.5h1V6.63Z"/><path class="cls-1" d="M235.42,6.12h4.42a10.47,10.47,0,0,1,3.19.4,4.22,4.22,0,0,1,1.82,1.08,3.25,3.25,0,0,1,.81,1.57,8.18,8.18,0,0,1,.19,1.79c0,.73,0,1.37,0,1.94a3.69,3.69,0,0,1-.34,1.46,2,2,0,0,1-.87.94,3.33,3.33,0,0,1-1.67.34,3.64,3.64,0,0,1,2.34.68,4,4,0,0,1,1.2,1.9,10.89,10.89,0,0,1,.44,2.92c.05,1.15.07,2.4.07,3.76a37.92,37.92,0,0,1-.36,6,6.63,6.63,0,0,1-1.17,3.1,3.15,3.15,0,0,1-2.17,1.17,26.7,26.7,0,0,1-3.4.17h-4.46v-.58h1v-28h-1Zm4.42,10.06a.71.71,0,0,1,.33-.58,2.1,2.1,0,0,1,1.21-.26,6,6,0,0,0,1.17-.08.88.88,0,0,0,.63-.44,2.42,2.42,0,0,0,.25-1.06c0-.47,0-1.13,0-2a14.47,14.47,0,0,0-.23-2.94,3.08,3.08,0,0,0-.69-1.51,1.88,1.88,0,0,0-1.12-.56,14.5,14.5,0,0,0-1.59-.08Zm0,18.57a8.49,8.49,0,0,0,1.69-.15,1.82,1.82,0,0,0,1.21-1.06,9,9,0,0,0,.73-2.92,48.7,48.7,0,0,0,.25-5.72c0-1.86,0-3.37-.08-4.53a11.83,11.83,0,0,0-.38-2.71,2.47,2.47,0,0,0-.79-1.34,2.21,2.21,0,0,0-1.29-.35,1.26,1.26,0,0,0-1.07.42,2.13,2.13,0,0,0-.31,1.25Z"/><path class="cls-1" d="M255.91,34.83a7.67,7.67,0,0,0,1.93-.17c.38-.11.6-.25.65-.44a.86.86,0,0,0-.1-.64,5.69,5.69,0,0,1-.32-.77,1.83,1.83,0,0,1,0-.84,1.44,1.44,0,0,1,.8-.85,1.3,1.3,0,0,1,1.1-.17,1.35,1.35,0,0,1,.79.63,1.78,1.78,0,0,1,.23,1.1,2,2,0,0,1-.56,1.23,4,4,0,0,1-1.61,1,8.09,8.09,0,0,1-2.87.42,9.37,9.37,0,0,1-3.11-.4,3,3,0,0,1-1.61-1.19,4.07,4.07,0,0,1-.58-1.93c-.06-.77-.09-1.68-.09-2.74,0-3.34,0-6.08,0-8.22s0-3.84,0-5.09V12.38c0-.66,0-1.37.09-2.1a4.93,4.93,0,0,1,.58-2,3.84,3.84,0,0,1,1.59-1.52,6.43,6.43,0,0,1,3.08-.61,8.12,8.12,0,0,1,2.88.42,4.09,4.09,0,0,1,1.61,1,2,2,0,0,1,.56,1.23,1.88,1.88,0,0,1-.23,1.11,1.5,1.5,0,0,1-.79.65,1.24,1.24,0,0,1-1.11-.19,1.49,1.49,0,0,1-.79-.86,1.65,1.65,0,0,1,0-.83,5.2,5.2,0,0,1,.32-.77.88.88,0,0,0,.1-.65c-.06-.18-.27-.33-.65-.44a7.84,7.84,0,0,0-1.94-.16,1.45,1.45,0,0,0-1.25.56A3.71,3.71,0,0,0,254,8.61a8.32,8.32,0,0,0-.23,1.87c0,.69,0,1.32,0,1.9v4c0,1.36,0,3.09,0,5.19s0,4.6,0,7.49c0,.92,0,1.73.05,2.44a8,8,0,0,0,.23,1.8,2.14,2.14,0,0,0,.62,1.12A1.82,1.82,0,0,0,255.91,34.83Z"/><path class="cls-1" d="M264.75,35.33v-.54h1V6.63h-1V6.12h5.42v.51h-1v7.51a2.07,2.07,0,0,0,.32,1.25,1.26,1.26,0,0,0,1.06.41,18.33,18.33,0,0,1,3.15.21,2.3,2.3,0,0,1,1.69,1.21,8,8,0,0,1,.69,3.09q.15,2.09.15,5.88a30.88,30.88,0,0,1-.34,5.28,5.06,5.06,0,0,1-1.17,2.71,3.43,3.43,0,0,1-2.21,1,31.81,31.81,0,0,1-3.38.15Zm4.42-.54a15,15,0,0,0,1.53-.08,1.77,1.77,0,0,0,1.25-.86,6.72,6.72,0,0,0,.81-2.52,33.06,33.06,0,0,0,.29-5.14c0-2.28,0-4.07-.06-5.38a16.28,16.28,0,0,0-.29-2.94,1.79,1.79,0,0,0-.69-1.23,2.59,2.59,0,0,0-1.25-.25,2.28,2.28,0,0,1-1.21-.23.68.68,0,0,1-.34-.56Z"/><path class="cls-1" d="M288.7,10.63a7.57,7.57,0,0,1,.9-2.75,4,4,0,0,1,1.29-1.42,2.07,2.07,0,0,1,2.44.1,1.53,1.53,0,0,1,.52.92,1.3,1.3,0,0,1-.35,1.1,1.33,1.33,0,0,1-1.82.42,4.6,4.6,0,0,1-.73-.48.85.85,0,0,0-.62-.23c-.2,0-.38.23-.55.59a9.6,9.6,0,0,0-.5,1.88,21.11,21.11,0,0,0-.5,3.75,16,16,0,0,1-.25,2.71,2.7,2.7,0,0,1-.85,1.63,3.54,3.54,0,0,1-2.23.54,10,10,0,0,1,3.19.44,4.53,4.53,0,0,1,2,1.34,5.1,5.1,0,0,1,1.09,2.25,14.6,14.6,0,0,1,.31,3.15c0,1.33,0,2.52,0,3.55a18.16,18.16,0,0,0,.15,2.56,3.61,3.61,0,0,0,.52,1.57,1.36,1.36,0,0,0,1.21.54v.54a6.61,6.61,0,0,1-3.09-.58A3.5,3.5,0,0,1,289.33,33a7.33,7.33,0,0,1-.57-2.76c0-1.08-.06-2.32-.06-3.71a12.09,12.09,0,0,0-.46-3.82,4.47,4.47,0,0,0-1.13-1.9,2.39,2.39,0,0,0-1.41-.64c-.5-.05-.94-.07-1.3-.07l0,14.69h.84v.5H280v-.5h1V6.63h-1V6.12h5.3v.51h-.88V19.06a5.52,5.52,0,0,0,2.51-.4,2,2,0,0,0,.93-1.37,14.33,14.33,0,0,0,.3-2.59A26.56,26.56,0,0,1,288.7,10.63Z"/><path class="cls-1" d="M308.23,12.8c-.36,1-.68,2-.94,2.82s-.57,1.81-.92,2.9l-1.06,3.29q-1.31,4-2.92,9v4h.83v.5h-5.3v-.5h1V6.63h-1V6.12h5.3v.51h-.88l.05,22.52c.36-1,.68-2,.95-2.81s.6-1.81.94-2.88.71-2.18,1.07-3.32q1.29-4,2.88-9V6.63h-1V6.12h5.29v.51h-.87l0,28.2h.83v.5h-5.29v-.5h1Z"/><path class="cls-1" d="M326.33,12.8q-.54,1.54-.93,2.82c-.27.85-.57,1.81-.92,2.9s-.7,2.18-1.07,3.29q-1.29,4-2.92,9v4h.84v.5H316v-.5h1V6.63h-1V6.12h5.3v.51h-.88l0,22.52c.36-1,.69-2,1-2.81l.94-2.88c.35-1.07.7-2.18,1.07-3.32q1.29-4,2.87-9V6.63h-1V6.12h5.3v.51h-.88l.05,28.2h.83v.5h-5.3v-.5h1Zm-2.92-9.06a5,5,0,0,0,1.65-.29c.29-.14.43-.29.42-.46a1,1,0,0,0-.29-.56,4.54,4.54,0,0,1-.48-.67,1.13,1.13,0,0,1-.17-.73c0-.25.27-.51.71-.79a1.07,1.07,0,0,1,1-.17,1.21,1.21,0,0,1,.63.59,2,2,0,0,1,.16,1,2,2,0,0,1-.42,1.1,3,3,0,0,1-1.14.9,4.68,4.68,0,0,1-2,.38,3.81,3.81,0,0,1-2.65-.77,2.59,2.59,0,0,1-.89-1.61,1.65,1.65,0,0,1,.42-1.38c.33-.36.77-.37,1.33,0s.65.54.69.79a1.06,1.06,0,0,1-.15.73,3.54,3.54,0,0,1-.5.67.92.92,0,0,0-.29.56c0,.17.14.32.42.46A4.79,4.79,0,0,0,323.41,3.74Z"/><text></text></g></g></svg>