<svg width="20" height="20" viewBox="0 0 20 20" fill="none" xmlns="http://www.w3.org/2000/svg">
<path d="M9.99996 0C6.00601 0 2.75671 3.2493 2.75671 7.2432C2.75671 12.1998 9.23871 19.4763 9.51468 19.7836C9.7739 20.0723 10.2265 20.0718 10.4852 19.7836C10.7612 19.4763 17.2432 12.1998 17.2432 7.2432C17.2431 3.2493 13.9939 0 9.99996 0ZM9.99996 18.3488C7.81843 15.7575 4.06109 10.645 4.06109 7.24328C4.06109 3.96852 6.72523 1.30438 9.99996 1.30438C13.2747 1.30438 15.9388 3.96852 15.9388 7.24324C15.9388 10.6451 12.182 15.7566 9.99996 18.3488Z" fill="#4B2507"/>
<path d="M9.99993 3.59912C7.99048 3.59912 6.35571 5.23393 6.35571 7.24338C6.35571 9.25283 7.99052 10.8876 9.99993 10.8876C12.0093 10.8876 13.6441 9.25283 13.6441 7.24338C13.6441 5.23393 12.0093 3.59912 9.99993 3.59912ZM9.99993 9.58326C8.7097 9.58326 7.66009 8.53361 7.66009 7.24338C7.66009 5.95314 8.70974 4.9035 9.99993 4.9035C11.2901 4.9035 12.3398 5.95314 12.3398 7.24338C12.3398 8.53361 11.2901 9.58326 9.99993 9.58326Z" fill="#4B2507"/>
</svg>
