<svg width="20" height="20" viewBox="0 0 20 20" fill="none" xmlns="http://www.w3.org/2000/svg">
<g clip-path="url(#clip0)">
<path d="M17.3537 1.83838H2.64642C1.18723 1.83838 0.00012207 3.02553 0.00012207 4.48467V15.5151C0.00012207 16.9743 1.18723 18.1614 2.64642 18.1614H17.3537C18.8129 18.1614 20 16.9743 20 15.5151V4.48467C20 3.02549 18.8129 1.83838 17.3537 1.83838ZM18.3842 15.5151C18.3842 16.0833 17.9219 16.5456 17.3537 16.5456H2.64642C2.07821 16.5456 1.61591 16.0833 1.61591 15.5151V4.48467C1.61591 3.91647 2.07821 3.45416 2.64642 3.45416H17.3537C17.9219 3.45416 18.3842 3.91647 18.3842 4.48467V15.5151Z" fill="#4B2507"/>
<path d="M19.8547 4.02147C19.5989 3.65596 19.0952 3.56705 18.7295 3.82291L10.0008 9.93296L1.27207 3.82287C0.906564 3.56698 0.402813 3.65592 0.146954 4.02143C-0.108906 4.38694 -0.0199992 4.89069 0.345509 5.14655L9.53755 11.581C9.67665 11.6784 9.83872 11.727 10.0008 11.727C10.1629 11.727 10.325 11.6784 10.4641 11.581L19.6561 5.14659C20.0217 4.89073 20.1106 4.38698 19.8547 4.02147Z" fill="#4B2507"/>
</g>
<defs>
<clipPath id="clip0">
<rect width="20" height="20" fill="white"/>
</clipPath>
</defs>
</svg>
