<svg width="20" height="20" viewBox="0 0 20 20" fill="none" xmlns="http://www.w3.org/2000/svg">
<path d="M19.4718 14.8828C18.9947 14.3351 16.7968 12.1341 16.5481 11.8854C16.3906 11.711 15.7991 11.1252 14.9622 11.1252C14.5656 11.1252 14.1757 11.2595 13.835 11.5139C13.4104 11.8314 12.7863 12.384 12.3339 12.7956C11.7493 12.46 10.831 11.9045 10.2087 11.3926C9.13731 10.5117 8.17671 9.36186 7.27254 7.87856L7.17718 7.69899C7.635 7.19711 8.18939 6.5709 8.50597 6.14628C9.30179 5.08035 8.72748 3.95195 8.12963 3.42805C7.85892 3.15764 5.68211 0.984141 5.13798 0.510631C4.7547 0.176548 4.28511 0 3.77992 0C3.38125 0 3.087 0.110757 3.00612 0.14486L2.73693 0.302093C1.56205 1.05657 0.100176 1.99544 0.0199 5.50889C0.0168821 8.9478 2.66872 12.2575 4.90318 14.435C7.22667 16.9788 10.7661 20 14.4666 20L14.4926 19.9997C17.987 19.9197 18.9256 18.4578 19.6798 17.2827L19.7622 17.1541L19.8361 17.0141C20.0169 16.5855 20.143 15.6542 19.4718 14.8828ZM18.1735 16.2777L18.156 16.3049C17.5005 17.3258 16.983 18.1319 14.4709 18.1896L14.4663 19.0949V18.1896C11.2559 18.1896 7.92321 15.0603 6.22261 13.1949L6.18489 13.156C3.37491 10.4227 1.82853 7.70744 1.83035 5.53062C1.88829 2.9989 2.69468 2.48133 3.71533 1.82584L3.73374 1.81407C3.80165 1.80562 3.88222 1.81799 3.94892 1.87624C4.38169 2.25317 6.20692 4.06633 6.87388 4.73329L6.92307 4.77886C6.99822 4.84646 7.08091 4.9708 7.08483 5.01366C7.08483 5.01366 7.0803 5.03025 7.05526 5.06375C6.78153 5.43073 6.18821 6.10976 5.41472 6.94029L4.97561 7.41199L5.68573 8.75104L5.71168 8.79721C6.72721 10.4685 7.82211 11.7753 9.05885 12.792C10.1682 13.704 11.9636 14.6649 12.0393 14.7054L12.6103 15.0096L13.0829 14.5684C13.6557 14.0336 14.4808 13.2927 14.9187 12.9655C14.9471 12.9444 14.9628 12.9378 14.9631 12.9366C15.0138 12.9414 15.1357 13.0229 15.1934 13.0863L15.2486 13.1466C15.9155 13.8136 17.7293 15.6391 18.1062 16.0719C18.1723 16.1479 18.1781 16.23 18.1735 16.2777Z" fill="#4B2507"/>
</svg>
