<svg width="20" height="20" viewBox="0 0 20 20" fill="none" xmlns="http://www.w3.org/2000/svg">
<path d="M17.0711 2.92895C15.1823 1.0402 12.6711 0 10 0C7.32891 0 4.8177 1.04023 2.92895 2.92895C1.0402 4.81766 0 7.32891 0 10C0 12.6711 1.0402 15.1823 2.92895 17.0711C4.81766 18.9598 7.32891 20 10 20C12.6711 20 15.1823 18.9598 17.0711 17.0711C18.9598 15.1823 20 12.6711 20 10C20 7.32891 18.9598 4.81766 17.0711 2.92895ZM10 18.3842C5.37695 18.3842 1.61578 14.623 1.61578 10C1.61578 5.37695 5.37695 1.61578 10 1.61578C14.623 1.61578 18.3842 5.37695 18.3842 10C18.3842 14.623 14.623 18.3842 10 18.3842Z" fill="#4B2507"/>
<path d="M13.3289 12.1862L10.8079 9.66527V4.48465C10.8079 4.03848 10.4462 3.67676 10 3.67676C9.55386 3.67676 9.19214 4.03848 9.19214 4.48465V9.99992C9.19214 10.2142 9.27726 10.4197 9.42878 10.5712L12.1863 13.3288C12.3441 13.4866 12.5509 13.5655 12.7576 13.5655C12.9644 13.5655 13.1711 13.4866 13.329 13.3288C13.6444 13.0133 13.6444 12.5018 13.3289 12.1862Z" fill="#4B2507"/>
</svg>
