<svg width="20" height="21" viewBox="0 0 20 21" fill="none" xmlns="http://www.w3.org/2000/svg">
<g clip-path="url(#clip0)">
<path d="M18.181 2.85191H12.8056V1.90324C12.8056 1.38726 12.3864 0.967499 11.8712 0.967499H8.12959C7.61436 0.967499 7.19521 1.38726 7.19521 1.90324V2.85187H1.81979C1.55982 2.85187 1.34912 3.06258 1.34912 3.32254C1.34912 3.5825 1.55982 3.7932 1.81979 3.7932H2.69213L3.28697 19.2774C3.32338 20.2251 4.09482 20.9675 5.0433 20.9675H14.9575C15.906 20.9675 16.6774 20.2251 16.7138 19.2774L17.3086 3.79316H18.181C18.4408 3.79316 18.6516 3.58246 18.6516 3.3225C18.6516 3.06262 18.4409 2.85191 18.181 2.85191ZM8.1365 1.90879H11.8642V2.85187H8.1365V1.90879ZM15.7732 19.2413C15.7563 19.6814 15.398 20.0262 14.9575 20.0262H5.0433C4.60283 20.0262 4.24455 19.6814 4.2276 19.2412L3.63416 3.7932H16.3667L15.7732 19.2413Z" fill="#676767"/>
<path d="M7.13409 8.06011C7.12913 7.80328 6.91948 7.59851 6.6637 7.59851C6.66066 7.59851 6.65753 7.59851 6.65448 7.59859C6.39464 7.60359 6.18796 7.81835 6.19296 8.0782L6.34066 15.7592C6.34558 16.016 6.5553 16.2208 6.81105 16.2208C6.81409 16.2208 6.81722 16.2208 6.82027 16.2207C7.08015 16.2157 7.28679 16.001 7.28179 15.7411L7.13409 8.06011Z" fill="#676767"/>
<path d="M9.99996 7.59848C9.74004 7.59848 9.5293 7.80918 9.5293 8.06914V15.7502C9.5293 16.0101 9.74 16.2208 9.99996 16.2208C10.2599 16.2208 10.4706 16.0101 10.4706 15.7502V8.06914C10.4706 7.80922 10.2599 7.59848 9.99996 7.59848Z" fill="#676767"/>
<path d="M13.3457 7.5986C13.0868 7.59285 12.871 7.80024 12.866 8.06012L12.7184 15.7411C12.7133 16.001 12.92 16.2157 13.1799 16.2207C13.1829 16.2208 13.1861 16.2208 13.1891 16.2208C13.4448 16.2208 13.6546 16.016 13.6595 15.7592L13.8072 8.07821C13.8122 7.81828 13.6056 7.60356 13.3457 7.5986Z" fill="#676767"/>
</g>
<defs>
<clipPath id="clip0">
<rect width="20" height="20" fill="white" transform="translate(0 0.967499)"/>
</clipPath>
</defs>
</svg>
